<svg width="24" height="22" viewBox="0 0 24 22" fill="none" xmlns="http://www.w3.org/2000/svg">
<path d="M22.12 16.2492L22.1202 16.2495C22.6265 17.1338 22.6256 18.194 22.1139 19.0768C21.5979 19.9679 20.6696 20.5 19.6403 20.5H4.36028C3.32973 20.5 2.40239 19.9677 1.88656 19.0765L22.12 16.2492ZM22.12 16.2492L14.48 2.93324C14.48 2.93322 14.48 2.93319 14.48 2.93317C13.9653 2.03587 13.0343 1.5 12.0003 1.5C10.9663 1.5 10.0353 2.03587 9.52059 2.93317C9.52058 2.93319 9.52057 2.93322 9.52056 2.93324L1.88078 16.2488M22.12 16.2492L1.88078 16.2488M1.88078 16.2488L1.88059 16.2492C1.3726 17.1333 1.37545 18.1935 1.88654 19.0765L1.88078 16.2488ZM15.3465 2.43472L15.3466 2.43483L22.9866 15.7508C23.6758 16.9521 23.6732 18.3798 22.9787 19.5783L22.9786 19.5784C22.2812 20.7827 21.0363 21.5 19.6403 21.5H4.36028C2.96427 21.5 1.71936 20.7827 1.02197 19.5784L1.0219 19.5783C0.327406 18.3798 0.32472 16.9521 1.01397 15.7508L8.65397 2.43483L8.65403 2.43472C9.34961 1.22166 10.5968 0.5 12.0003 0.5C13.4037 0.5 14.651 1.22166 15.3465 2.43472ZM11.5003 7C11.5003 6.72314 11.7234 6.5 12.0003 6.5C12.2771 6.5 12.5003 6.72314 12.5003 7V13C12.5003 13.2769 12.2771 13.5 12.0003 13.5C11.7234 13.5 11.5003 13.2769 11.5003 13V7ZM11.5003 17.01C11.5003 16.7299 11.7267 16.505 12.0003 16.505C12.2804 16.505 12.5003 16.7264 12.5003 17V17.01C12.5003 17.2869 12.2771 17.51 12.0003 17.51C11.7234 17.51 11.5003 17.2869 11.5003 17.01Z" fill="#757575" stroke="#757575"/>
</svg>
