<svg width="20" height="22" viewBox="0 0 20 22" fill="none" xmlns="http://www.w3.org/2000/svg">
<path d="M0.500031 7.85964L9.50003 13.0596C9.65205 13.1474 9.82449 13.1936 10 13.1936C10.1756 13.1936 10.348 13.1474 10.5 13.0596L19.5 7.85964C19.6512 7.77238 19.7768 7.64709 19.8646 7.49622C19.9523 7.34535 19.999 7.17415 20 6.99964C20.0007 6.82343 19.9549 6.65016 19.8671 6.49738C19.7792 6.34461 19.6526 6.21774 19.5 6.12964L10.5 0.939639C10.348 0.85187 10.1756 0.805664 10 0.805664C9.82449 0.805664 9.65205 0.85187 9.50003 0.939639L0.500031 6.12964C0.347426 6.21774 0.220812 6.34461 0.133009 6.49738C0.0452054 6.65016 -0.000669067 6.82343 3.05002e-05 6.99964C0.00108387 7.17415 0.0477894 7.34535 0.135505 7.49622C0.223221 7.64709 0.348893 7.77238 0.500031 7.85964ZM10 2.99964L17 6.99964L10 10.9996L3.00003 6.99964L10 2.99964ZM18.5 10.1696L10 14.9996L1.50003 10.1296C1.3859 10.0635 1.25981 10.0206 1.12903 10.0035C0.998253 9.98627 0.865367 9.99513 0.738027 10.0295C0.610687 10.0639 0.491408 10.1232 0.387061 10.2038C0.282714 10.2845 0.195361 10.3851 0.130031 10.4996C-0.000341877 10.7293 -0.0346082 11.0011 0.0347087 11.2559C0.104026 11.5107 0.271299 11.7277 0.500031 11.8596L9.50003 17.0596C9.65205 17.1474 9.82449 17.1936 10 17.1936C10.1756 17.1936 10.348 17.1474 10.5 17.0596L19.5 11.8596C19.7288 11.7277 19.896 11.5107 19.9654 11.2559C20.0347 11.0011 20.0004 10.7293 19.87 10.4996C19.8047 10.3851 19.7173 10.2845 19.613 10.2038C19.5087 10.1232 19.3894 10.0639 19.262 10.0295C19.1347 9.99513 19.0018 9.98627 18.871 10.0035C18.7402 10.0206 18.6142 10.0635 18.5 10.1296V10.1696ZM18.5 14.1696L10 18.9996L1.50003 14.1296C1.3859 14.0635 1.25981 14.0206 1.12903 14.0035C0.998253 13.9863 0.865367 13.9951 0.738027 14.0295C0.610687 14.0639 0.491408 14.1232 0.387061 14.2038C0.282714 14.2845 0.195361 14.3851 0.130031 14.4996C-0.000341877 14.7293 -0.0346082 15.0011 0.0347087 15.2559C0.104026 15.5107 0.271299 15.7277 0.500031 15.8596L9.50003 21.0596C9.65205 21.1474 9.82449 21.1936 10 21.1936C10.1756 21.1936 10.348 21.1474 10.5 21.0596L19.5 15.8596C19.7288 15.7277 19.896 15.5107 19.9654 15.2559C20.0347 15.0011 20.0004 14.7293 19.87 14.4996C19.8047 14.3851 19.7173 14.2845 19.613 14.2038C19.5087 14.1232 19.3894 14.0639 19.262 14.0295C19.1347 13.9951 19.0018 13.9863 18.871 14.0035C18.7402 14.0206 18.6142 14.0635 18.5 14.1296V14.1696Z" fill="black"/>
</svg>
