<?xml version="1.0" encoding="UTF-8"?>
<!-- Generator: Adobe Illustrator 24.2.3, SVG Export Plug-In . SVG Version: 6.00 Build 0)  -->
<svg version="1.1" id="Capa_1" xmlns="http://www.w3.org/2000/svg" xmlns:xlink="http://www.w3.org/1999/xlink" x="0px" y="0px" viewBox="0 0 234.4 44.8" style="enable-background:new 0 0 234.4 44.8;" xml:space="preserve">
<style type="text/css">
	.st0{fill:white ;}
	.st1{fill:#ADADAD;}
	.st2{fill:#009FD4;}
	.st3{fill:#EE9E2C;}
</style>
<g>
	<g>
		<path class="st0" d="M43.5,26.6h5.5c0,2.6,1.6,3.8,4.7,3.8c2.8,0,4.1-1.2,4.1-2.8c0-2-2.2-2.9-4.9-3.8c-4-1.4-9-3.1-9-9    c0-5.4,4.5-8.2,9.1-8.2c4.9,0,9.5,2.8,9.5,9.1h-5.5c0-2.4-1.4-3.7-4-3.7c-2.3,0-3.6,1.2-3.6,2.8c0,2,1.9,3,4.5,3.9    c4.1,1.4,9.4,2.9,9.4,8.9c0,5.4-4.4,8.2-9.6,8.2C48.3,35.8,43.5,32.9,43.5,26.6z"/>
		<path class="st0" d="M88.3,25.2c0,6-4.4,10.6-9.8,10.6c-2.9,0-5.1-1.1-6.5-2.9v10.4h-5.2V15.2H72v2.3c1.4-1.8,3.6-2.9,6.5-2.9    C83.9,14.6,88.3,19.3,88.3,25.2z M83.1,25.2c0-3.4-2.4-5.7-5.6-5.7c-3.1,0-5.4,2.1-5.5,5.3v0.7c0.2,3.2,2.5,5.3,5.5,5.3    C80.7,30.9,83.1,28.6,83.1,25.2z"/>
		<path class="st0" d="M90.9,25.2c0-6,4.7-10.6,10.6-10.6s10.6,4.6,10.6,10.6s-4.7,10.6-10.6,10.6S90.9,31.2,90.9,25.2z M106.9,25.2    c0-3.3-2.4-5.5-5.5-5.5c-3.1,0-5.4,2.3-5.4,5.5s2.4,5.5,5.4,5.5C104.6,30.8,106.9,28.5,106.9,25.2z"/>
		<path class="st0" d="M125.8,20.7h-3.5v15.1h-5.2V20.7h-3.5v-5h3.5V9.3h5.2v6.4h3.5V20.7z"/>
		<path class="st0" d="M139.2,20.7h-3.5v15.1h-5.2V20.7h-3.5v-5h3.5V9.3h5.2v6.4h3.5V20.7z"/>
		<path class="st0" d="M151.4,31.5c1.8,0,3.5-0.9,4.1-2l5.1,0c-1.2,4.1-4.8,6.3-9.3,6.3c-6.5,0-10.8-4.6-10.8-10.6    s4.3-10.6,10.6-10.6c5.9,0,10,4.7,10,10.6c0,0.8,0,1.4-0.2,2.1H146C146.6,30.2,148.8,31.5,151.4,31.5z M156,23.3    c-0.6-2.9-2.7-4-4.9-4c-2.8,0-4.6,1.5-5.3,4H156z"/>
		<path class="st0" d="M175.3,15.5v5.8c-2.7-0.3-5.5,0.9-5.5,4.8v9.9h-5.2V15.9h5.2v3C170.8,16.5,172.9,15.5,175.3,15.5z"/>
	</g>
	<g>
		<path class="st1" d="M201.8,29.5c0.9,0,1.5,0.3,2,0.9c0.5,0.6,0.7,1.4,0.7,2.5c0,1.1-0.2,1.9-0.7,2.5c-0.5,0.6-1.1,0.9-2,0.9    c-0.4,0-0.8-0.1-1.2-0.2c-0.4-0.2-0.6-0.4-0.9-0.7h-0.1l-0.2,0.8h-0.7v-9.3h1v2.3c0,0.5,0,1,0,1.4h0    C200.2,29.8,200.9,29.5,201.8,29.5z M201.6,30.3c-0.7,0-1.2,0.2-1.5,0.6c-0.3,0.4-0.4,1-0.4,2c0,0.9,0.2,1.6,0.5,2    c0.3,0.4,0.8,0.6,1.5,0.6c0.6,0,1.1-0.2,1.4-0.7c0.3-0.4,0.4-1.1,0.4-1.9c0-0.9-0.1-1.5-0.4-1.9C202.7,30.5,202.3,30.3,201.6,30.3    z"/>
		<path class="st1" d="M205.2,29.6h1.1l1.4,3.7c0.3,0.9,0.5,1.5,0.6,1.8h0c0.1-0.2,0.2-0.6,0.3-1c0.2-0.5,0.7-2,1.6-4.5h1.1    l-2.8,7.5c-0.3,0.7-0.6,1.3-1,1.6c-0.4,0.3-0.8,0.5-1.4,0.5c-0.3,0-0.6,0-0.9-0.1v-0.8c0.2,0,0.5,0.1,0.7,0.1    c0.7,0,1.2-0.4,1.5-1.1l0.4-0.9L205.2,29.6z"/>
	</g>
	<g>
		<path class="st2" d="M230.4,37.5H219c-1.7,0-3-1.4-3-3V23.4c0-1.7,1.4-3,3-3h11.3c1.6,0,2.9,1.3,2.9,2.9v11.3    C233.2,36.2,231.9,37.5,230.4,37.5z M219,21.6c-1,0-1.8,0.8-1.8,1.8v11.1c0,1,0.8,1.8,1.8,1.8h11.4c0.9,0,1.6-0.7,1.6-1.6V23.3    c0-0.9-0.8-1.7-1.7-1.7H219z"/>
	</g>
	<g>
		<path class="st0" d="M228.3,33.1c0,0.1,0,0.2-0.1,0.2c-0.1,0-0.2,0.1-0.3,0.1c-0.1,0-0.3,0-0.6,0c-0.3,0-0.5,0-0.6,0    c-0.1,0-0.2-0.1-0.3-0.1c-0.1,0-0.1-0.1-0.1-0.2v-0.7c-0.3,0.4-0.7,0.6-1.2,0.8c-0.4,0.2-0.9,0.3-1.4,0.3c-0.4,0-0.8-0.1-1.2-0.2    c-0.4-0.1-0.7-0.3-0.9-0.5c-0.3-0.2-0.5-0.5-0.6-0.8c-0.1-0.3-0.2-0.7-0.2-1.2c0-0.5,0.1-0.9,0.3-1.2c0.2-0.4,0.5-0.6,0.8-0.9    c0.4-0.2,0.8-0.4,1.4-0.5c0.6-0.1,1.2-0.2,1.9-0.2h0.8v-0.5c0-0.3,0-0.5-0.1-0.7c-0.1-0.2-0.1-0.4-0.3-0.5    c-0.1-0.1-0.3-0.2-0.5-0.3c-0.2-0.1-0.4-0.1-0.7-0.1c-0.4,0-0.7,0-1,0.1c-0.3,0.1-0.6,0.2-0.8,0.3c-0.2,0.1-0.4,0.2-0.6,0.3    c-0.2,0.1-0.3,0.1-0.4,0.1c-0.1,0-0.1,0-0.2-0.1c-0.1,0-0.1-0.1-0.1-0.2c0-0.1-0.1-0.2-0.1-0.3c0-0.1,0-0.2,0-0.4    c0-0.2,0-0.3,0-0.5c0-0.1,0.1-0.2,0.2-0.3c0.1-0.1,0.2-0.2,0.5-0.3c0.2-0.1,0.5-0.2,0.8-0.3c0.3-0.1,0.6-0.2,0.9-0.2    c0.3-0.1,0.7-0.1,1.1-0.1c0.6,0,1.2,0.1,1.7,0.2c0.5,0.1,0.8,0.3,1.1,0.6c0.3,0.3,0.5,0.6,0.6,1c0.1,0.4,0.2,0.9,0.2,1.5V33.1z     M226.1,29.6h-0.9c-0.4,0-0.7,0-1,0.1c-0.3,0.1-0.5,0.1-0.6,0.2c-0.2,0.1-0.3,0.2-0.4,0.4c-0.1,0.2-0.1,0.3-0.1,0.5    c0,0.3,0.1,0.6,0.3,0.8c0.2,0.2,0.5,0.3,0.9,0.3c0.3,0,0.6-0.1,0.9-0.2c0.3-0.2,0.6-0.4,0.8-0.7V29.6z"/>
	</g>
	<path class="st0" d="M13,8.3C8.5,10,5.3,14.4,5.3,19.6c0,6.7,5.4,12.1,12.1,12.1c6.7,0,12.1-5.4,12.1-12.1c0-2.1-0.5-4-1.4-5.7   l3.8-1.5c1.1,2.2,1.7,4.6,1.7,7.2c0,8.9-7.3,16.2-16.2,16.2c-8.9,0-16.2-7.3-16.2-16.2c0-6.9,4.3-12.7,10.3-15.1"/>
	<g>
		<path class="st3" d="M20.4,21.8c0,2.6-2.1,4.8-4.8,4.8c-2.6,0-4.8-2.1-4.8-4.8c0-2.6,2.1-4.8,4.8-4.8C18.3,17,20.4,19.2,20.4,21.8    z"/>
	</g>
	<g>
		<path class="st3" d="M20.8,14.1c0,1-0.8,1.9-1.9,1.9s-1.9-0.8-1.9-1.9c0-1,0.8-1.9,1.9-1.9S20.8,13,20.8,14.1z"/>
	</g>
	<g>
		<g>
			<path class="st3" d="M31.4,9.9c-2.9-7-11-10.3-18-7.3c0,0,0,0,0,0l1,2.3c2.8-1.2,5.9-1.2,8.6,0c2.7,1.1,4.9,3.3,6.1,6L31.4,9.9"/>
		</g>
		<g>
			<path class="st3" d="M15.1,7.1l1,2.3c3.2-1.3,6.9,0.2,8.2,3.3c0,0,0,0,0,0l2.3-1C24.8,7.3,19.6,5.2,15.1,7.1     C15.2,7.1,15.2,7.1,15.1,7.1L15.1,7.1z"/>
		</g>
	</g>
</g>
</svg>